<svg xmlns="http://www.w3.org/2000/svg" width="1280" height="760" viewBox="0 0 1280 760" role="img" aria-labelledby="title desc">
  <title id="title">Lab5 VPC Peering Architecture</title>
  <desc id="desc">Cross-region VPC Peering between Seoul my-vpc and Tokyo tk-vpc</desc>
  <defs>
    <style>
      .bg { fill: #f6f8fb; }
      .title { font: 700 30px Arial, sans-serif; fill: #172033; }
      .subtitle { font: 15px Arial, sans-serif; fill: #536178; }
      .region { fill: #eef4ff; stroke: #4e7bd9; stroke-width: 3; }
      .region2 { fill: #fff7ed; stroke: #f28c28; stroke-width: 3; }
      .subnet { fill: #ffffff; stroke: #c8d4e8; stroke-width: 2; }
      .box { fill: #ffffff; stroke: #cbd6e8; stroke-width: 2; }
      .ec2 { fill: #fff3e8; stroke: #f28c28; stroke-width: 2; }
      .route { fill: #ecfdf3; stroke: #30a46c; stroke-width: 2; }
      .peer { fill: #f3edff; stroke: #8357d6; stroke-width: 2; }
      .label { font: 700 16px Arial, sans-serif; fill: #172033; }
      .small { font: 13px Arial, sans-serif; fill: #4f5d73; }
      .tiny { font: 12px Arial, sans-serif; fill: #64748b; }
      .arrow-green { stroke: #2f9e67; stroke-width: 4; fill: none; marker-end: url(#arrowGreen); }
      .arrow-purple { stroke: #8357d6; stroke-width: 4; fill: none; marker-end: url(#arrowPurple); }
      .arrow-gray { stroke: #94a3b8; stroke-width: 3; fill: none; marker-end: url(#arrowGray); }
      .dash { stroke-dasharray: 8 8; }
    </style>
    <marker id="arrowGreen" markerWidth="12" markerHeight="12" refX="10" refY="6" orient="auto">
      <path d="M2,2 L10,6 L2,10 Z" fill="#2f9e67"/>
    </marker>
    <marker id="arrowPurple" markerWidth="12" markerHeight="12" refX="10" refY="6" orient="auto">
      <path d="M2,2 L10,6 L2,10 Z" fill="#8357d6"/>
    </marker>
    <marker id="arrowGray" markerWidth="12" markerHeight="12" refX="10" refY="6" orient="auto">
      <path d="M2,2 L10,6 L2,10 Z" fill="#94a3b8"/>
    </marker>
  </defs>
  <rect class="bg" width="1280" height="760"/>
  <text class="title" x="56" y="62">Lab5 VPC Peering</text>
  <text class="subtitle" x="56" y="91">Cross-region private connectivity between Seoul and Tokyo VPCs</text>

  <rect class="region" x="58" y="140" width="510" height="480" rx="24"/>
  <text class="label" x="94" y="180">Seoul Region</text>
  <text class="small" x="94" y="204">my-vpc / 10.0.0.0/16</text>

  <rect class="subnet" x="100" y="278" width="390" height="220" rx="18"/>
  <text class="label" x="130" y="314">my-sub01</text>
  <text class="small" x="130" y="338">public subnet</text>
  <rect class="ec2" x="202" y="386" width="186" height="72" rx="14"/>
  <text class="label" x="295" y="416" text-anchor="middle">my-web01</text>
  <text class="small" x="295" y="440" text-anchor="middle">ping source</text>

  <rect class="route" x="100" y="526" width="390" height="60" rx="14"/>
  <text class="label" x="295" y="552" text-anchor="middle">my-route</text>
  <text class="small" x="295" y="574" text-anchor="middle">10.10.0.0/16 -> peering</text>

  <rect class="peer" x="520" y="318" width="240" height="96" rx="20"/>
  <text class="label" x="640" y="354" text-anchor="middle">my-peer</text>
  <text class="small" x="640" y="378" text-anchor="middle">VPC Peering</text>
  <text class="tiny" x="640" y="398" text-anchor="middle">private IP traffic</text>

  <rect class="region2" x="712" y="140" width="510" height="480" rx="24"/>
  <text class="label" x="748" y="180">Tokyo Region</text>
  <text class="small" x="748" y="204">tk-vpc / 10.10.0.0/16</text>

  <rect class="subnet" x="752" y="250" width="190" height="220" rx="18"/>
  <text class="label" x="782" y="286">tk-sub01</text>
  <text class="small" x="782" y="310">public subnet</text>
  <rect class="ec2" x="774" y="370" width="146" height="64" rx="14"/>
  <text class="label" x="847" y="398" text-anchor="middle">tk-web01</text>
  <text class="small" x="847" y="420" text-anchor="middle">private ping OK</text>

  <rect class="subnet" x="984" y="250" width="190" height="220" rx="18"/>
  <text class="label" x="1014" y="286">tk-sub02</text>
  <text class="small" x="1014" y="310">private subnet</text>
  <rect class="ec2" x="1006" y="370" width="146" height="64" rx="14"/>
  <text class="label" x="1079" y="398" text-anchor="middle">tk-web02</text>
  <text class="small" x="1079" y="420" text-anchor="middle">needs main route</text>

  <rect class="route" x="752" y="526" width="190" height="60" rx="14"/>
  <text class="label" x="847" y="552" text-anchor="middle">tk-route</text>
  <text class="small" x="847" y="574" text-anchor="middle">10.0.0.0/16 -> peering</text>

  <rect class="route" x="984" y="526" width="190" height="60" rx="14"/>
  <text class="label" x="1079" y="552" text-anchor="middle">main route</text>
  <text class="small" x="1079" y="574" text-anchor="middle">10.0.0.0/16 -> peering</text>

  <path class="arrow-purple" d="M390 420 C458 398, 492 382, 508 370"/>
  <path class="arrow-purple" d="M760 366 C792 370, 808 374, 832 382"/>
  <path class="arrow-purple dash" d="M760 384 C870 444, 986 456, 1060 432"/>
  <path class="arrow-green" d="M295 526 C372 470, 448 414, 520 382"/>
  <path class="arrow-green" d="M760 354 C788 340, 808 328, 832 318"/>
  <path class="arrow-green" d="M760 396 C858 504, 970 518, 1070 526"/>
  <path class="arrow-gray dash" d="M295 386 C420 220, 670 180, 846 250"/>
  <text class="tiny" x="570" y="236">public IP path worked before peering</text>
  <text class="tiny" x="570" y="438">private IP path works after peering routes</text>
</svg>
